<svg xmlns="http://www.w3.org/2000/svg" viewBox="0 0 96 96" role="img" aria-label="Golau light mark">
  <defs>
    <radialGradient id="g" cx="42%" cy="38%" r="70%">
      <stop offset="0%" stop-color="#ffffff" stop-opacity="1"/>
      <stop offset="55%" stop-color="#8CD6FF" stop-opacity="0.85"/>
      <stop offset="100%" stop-color="#8CD6FF" stop-opacity="0"/>
    </radialGradient>
    <linearGradient id="b" x1="0" y1="0" x2="1" y2="1">
      <stop offset="0%" stop-color="#ffffff" stop-opacity="0.95"/>
      <stop offset="100%" stop-color="#8CD6FF" stop-opacity="0.95"/>
    </linearGradient>
  </defs>

  <!-- soft glow -->
  <circle cx="40" cy="40" r="30" fill="url(#g)"/>

  <!-- beam / flame -->
  <path d="M52 18c-6 7-7 12-6 17 1 7 7 10 7 18 0 10-7 17-17 17-8 0-14-5-15-12-2 9 5 20 19 20 16 0 28-12 28-28 0-15-10-20-11-32-1-6 2-11 7-18z"
        fill="url(#b)"/>

  <!-- spark -->
  <path d="M73 25l4 7 7 4-7 4-4 7-4-7-7-4 7-4 4-7z"
        fill="#ffffff" opacity="0.92"/>
</svg>
